<?xml version="1.0" standalone="no"?><!DOCTYPE svg PUBLIC "-//W3C//DTD SVG 1.1//EN" "http://www.w3.org/Graphics/SVG/1.1/DTD/svg11.dtd"><svg class="icon" width="20px" height="20.00px" viewBox="0 0 1024 1024" version="1.1" xmlns="http://www.w3.org/2000/svg"><path d="M857.880565 455.018218 566.758138 455.018218 566.758138 163.899884c0-20.098757-16.292058-36.389792-36.390815-36.389792l-36.389792 0c-20.098757 0-36.389792 16.292058-36.389792 36.389792l0 291.118334L166.464289 455.018218c-20.098757 0-36.390815 16.292058-36.390815 36.390815l0 36.393885c0 20.098757 16.292058 36.389792 36.390815 36.389792l291.122427 0 0 291.118334c0 20.098757 16.292058 36.389792 36.389792 36.389792l36.389792 0c20.098757 0 36.390815-16.292058 36.390815-36.389792L566.757115 564.192709l291.122427 0c20.098757 0 36.390815-16.292058 36.390815-36.389792l0-36.393885C894.270357 471.310276 877.978299 455.018218 857.880565 455.018218z" fill="#3999ff" /></svg>