<?xml version="1.0" standalone="no"?><!DOCTYPE svg PUBLIC "-//W3C//DTD SVG 1.1//EN" "http://www.w3.org/Graphics/SVG/1.1/DTD/svg11.dtd"><svg class="icon" width="20px" height="20.00px" viewBox="0 0 1024 1024" version="1.1" xmlns="http://www.w3.org/2000/svg"><path d="M455.111111 455.111111 113.827366 455.111111C82.183444 455.111111 56.888889 480.581134 56.888889 512 56.888889 543.637912 82.381113 568.888889 113.827366 568.888889L455.111111 568.888889 455.111111 910.172632C455.111111 941.816553 480.581134 967.111111 512 967.111111 543.637912 967.111111 568.888889 941.618887 568.888889 910.172632L568.888889 568.888889 910.172632 568.888889C941.816553 568.888889 967.111111 543.418866 967.111111 512 967.111111 480.362088 941.618887 455.111111 910.172632 455.111111L568.888889 455.111111 568.888889 113.827366C568.888889 82.183444 543.418866 56.888889 512 56.888889 480.362088 56.888889 455.111111 82.381113 455.111111 113.827366L455.111111 455.111111Z" fill="#1296db" /></svg>