<?xml version="1.0" standalone="no"?><!DOCTYPE svg PUBLIC "-//W3C//DTD SVG 1.1//EN" "http://www.w3.org/Graphics/SVG/1.1/DTD/svg11.dtd"><svg class="icon" width="21px" height="21.00px" viewBox="0 0 1024 1024" version="1.1" xmlns="http://www.w3.org/2000/svg"><path d="M645.947475 511.741414c18.359596 0 33.228283-14.868687 33.228283-33.228283s-14.868687-33.228283-33.228283-33.228283h-100.848485v-1.292929l123.086869-128.646464c12.670707-13.317172 12.412121-34.262626-0.775758-46.933334-13.187879-12.670707-34.133333-12.153535-46.80404 1.163637l-105.503031 110.933333-111.709091-111.450505c-13.058586-12.929293-34.00404-12.929293-46.933333 0.129293-12.929293 12.929293-13.575758 34.00404-0.646465 46.933333l122.828283 123.216162v6.20606h-98.391919c-18.359596 0-33.228283 14.868687-33.228283 33.228283s14.868687 33.228283 33.228283 33.228283H478.642424v66.456566h-98.391919c-18.359596 0-33.228283 14.868687-33.228283 33.228282s14.868687 33.228283 33.228283 33.228283H478.642424v98.779798c0 18.359596 14.868687 33.228283 33.228283 33.228283s33.228283-14.868687 33.228283-33.228283v-98.779798h100.848485c18.359596 0 33.228283-14.868687 33.228283-33.228283s-14.868687-33.228283-33.228283-33.228282h-100.848485V512l100.848485-0.258586z" fill="#ffffff" /><path d="M976.420202 487.563636V510.707071h-65.810101v1.034343c0 219.79798-178.812121 398.610101-398.610101 398.739394C292.331313 910.351515 113.260606 731.280808 113.260606 511.741414c0-219.79798 178.812121-398.739394 398.739394-398.739394h0.387879V46.545455C255.741414 46.286869 46.80404 255.094949 46.80404 511.612121c0 256.646465 208.549495 465.19596 465.19596 465.19596 256.517172 0 465.19596-208.678788 465.19596-465.19596-0.129293-8.016162-0.258586-16.032323-0.775758-24.048485z" fill="#ffffff" /><path d="M943.709091 235.571717H698.957576c-18.359596 0-33.357576-14.868687-33.357576-33.357576 0-18.359596 14.868687-33.357576 33.357576-33.357575h244.751515c18.359596 0 33.357576 14.868687 33.357576 33.357575s-14.868687 33.357576-33.357576 33.357576zM523.765657 113.00202h-11.377778V46.545455h11.377778c18.359596 0 33.228283 14.868687 33.228282 33.228282s-14.868687 33.228283-33.228282 33.228283zM943.579798 476.961616c-18.230303 0-32.969697 14.739394-32.969697 32.969697v0.775758H976.420202v-0.775758c0-18.230303-14.739394-32.969697-32.840404-32.969697z" fill="#ffffff" /><path d="M794.505051 322.715152V78.092929c0-18.359596 14.868687-33.357576 33.357575-33.357575 18.359596 0 33.357576 14.868687 33.357576 33.357575v244.751515c0 18.359596-14.868687 33.357576-33.357576 33.357576-18.488889-0.129293-33.357576-14.99798-33.357575-33.486868z" fill="#ffffff" /></svg>