<?xml version="1.0" standalone="no"?><!DOCTYPE svg PUBLIC "-//W3C//DTD SVG 1.1//EN" "http://www.w3.org/Graphics/SVG/1.1/DTD/svg11.dtd"><svg class="icon" width="100px" height="100.00px" viewBox="0 0 1024 1024" version="1.1" xmlns="http://www.w3.org/2000/svg"><path d="M205.792 409.504c33.024 0 62.112 23.008 70.72 54.368l86.816 25.312 82.656-134.784c10.944-18.112 34.432-23.776 52.384-12.832l1.696 1.152 0 0 141.472 97.024 112.8-198.944c-5.92-10.56-9.344-22.656-9.344-35.488 0-20 8.32-38.496 21.504-51.712 13.312-13.216 31.616-21.504 51.808-21.504 40.192 0 73.344 33.216 73.344 73.248 0 20.384-8.128 38.496-21.44 52.096-12.736 12.448-30.304 20.768-49.536 21.12l-132.608 233.696c-0.768 1.504-1.504 2.656-2.368 3.776-11.872 17.728-35.648 22.272-53.024 10.208l-142.624-97.792-50.784 82.688 49.856 14.336c4.416 1.504 8.384 3.392 11.872 6.016l0.096 0 162.784 119.296 86.848-13.216c11.232-26.784 38.112-44.928 67.584-44.928 20.192 0 38.688 8.32 51.904 21.536 13.312 13.216 21.44 31.328 21.44 51.712 0 40.384-33.12 73.248-73.344 73.248-20.192 0-38.496-8.288-51.808-21.504l-4.256-4.512-102.4 15.488 0 0c-9.632 1.504-19.744-0.768-28.224-6.816l-170.368-124.96-63.328-18.112-126.944 206.496c5.088 10.208 8.128 21.504 8.128 33.6 0 20.032-8.288 38.528-21.504 51.712-13.312 13.216-31.616 21.536-51.808 21.536-40.192 0-73.44-33.216-73.44-73.248 0-40.384 33.216-73.6 73.44-73.6l0.192 0 116-188.768-66.624-19.264c-13.024 12.096-30.496 19.264-49.568 19.264-40.192 0-73.44-33.216-73.44-73.248C132.352 442.72 165.568 409.504 205.792 409.504L205.792 409.504z" fill="#407fce" /></svg>