<?xml version="1.0" standalone="no"?><!DOCTYPE svg PUBLIC "-//W3C//DTD SVG 1.1//EN" "http://www.w3.org/Graphics/SVG/1.1/DTD/svg11.dtd"><svg class="icon" width="100px" height="99.61px" viewBox="0 0 1028 1024" version="1.1" xmlns="http://www.w3.org/2000/svg"><path d="M514.56 0C231.790933 0 2.56 229.230933 2.56 512s229.230933 512 512 512 512-229.230933 512-512S797.329067 0 514.56 0z m0 938.666667c-235.648 0-426.666667-191.018667-426.666667-426.666667 0-235.639467 191.018667-426.666667 426.666667-426.666667 235.639467 0 426.666667 191.0272 426.666667 426.666667 0 235.648-191.0272 426.666667-426.666667 426.666667z m169.783467-682.999467l90.389333 90.3936-60.2624 60.258133-90.3936-90.389333 60.266667-60.2624z m-90.3936 90.3936l90.3936 90.3936-301.312 301.303467-90.389334 30.1312-30.1312-30.1312 30.1312-90.389334 301.312-301.312z" fill="#407fce" /></svg>