<?xml version="1.0" standalone="no"?><!DOCTYPE svg PUBLIC "-//W3C//DTD SVG 1.1//EN" "http://www.w3.org/Graphics/SVG/1.1/DTD/svg11.dtd"><svg class="icon" width="30px" height="30.00px" viewBox="0 0 1024 1024" version="1.1" xmlns="http://www.w3.org/2000/svg"><path d="M876.9 532.2L513.2 890.7 148.8 532.3c-11.4-11.2-30-11.2-41.3 0-11.4 11.2-11.4 29.5 0 40.7l384.3 378.1c5.7 5.6 12.8 8.4 20.7 8.4 7.1 0 15-2.8 20.7-8.4L917.5 573c12.1-11.2 12.1-29.5 0.8-40.7-11.3-11.2-29.9-11.4-41.4-0.1z" fill="#008000" /><path d="M149 491l363.7-358.4L877.2 491c11.4 11.2 30 11.2 41.3 0 5.5-5.3 8.6-12.7 8.6-20.3 0-7.7-3.1-15-8.6-20.3L534.1 72.2c-5.7-5.6-12.8-8.4-20.7-8.4-7.1 0-15 2.8-20.7 8.4L108.3 450.3c-12.1 11.2-12.1 29.5-0.8 40.7 11.6 11.2 30.2 11.2 41.5 0z" fill="#d81e06" /></svg>