<?xml version="1.0" standalone="no"?><!DOCTYPE svg PUBLIC "-//W3C//DTD SVG 1.1//EN" "http://www.w3.org/Graphics/SVG/1.1/DTD/svg11.dtd"><svg class="icon" width="100px" height="100.00px" viewBox="0 0 1024 1024" version="1.1" xmlns="http://www.w3.org/2000/svg"><path d="M651.324162 798.72528c0-10.752902-7.756661-19.458167-17.308201-19.458167L391.774825 779.267113c-9.550517 0-17.303085 8.705266-17.303085 19.458167l0 77.82346L201.435779 876.54874l0 58.363246 622.905926 0 0-58.363246L651.324162 876.54874 651.324162 798.72528 651.324162 798.72528 651.324162 798.72528zM902.027018 89.64674 123.768885 89.64674c-32.243355 0-58.366316 26.104541-58.366316 58.347896l0 544.776498c0 32.220842 26.122961 58.368362 58.366316 58.368362l778.259156 0c32.243355 0 58.368362-26.146497 58.368362-58.368362L960.396403 147.994636C960.39538 115.750257 934.271396 89.64674 902.027018 89.64674L902.027018 89.64674 902.027018 89.64674zM902.027018 673.27715c0 10.733459-8.722662 19.452028-19.457144 19.452028L143.227052 692.729178c-10.752902 0-19.453051-8.718569-19.453051-19.452028L123.774001 167.43336c0-10.756995 8.700149-19.457144 19.453051-19.457144l739.343845 0c10.733459 0 19.457144 8.699126 19.457144 19.457144L902.028041 673.27715 902.027018 673.27715 902.027018 673.27715zM702.71153 636.054387l105.261369 0L807.972898 329.59567 702.71153 329.59567 702.71153 636.054387 702.71153 636.054387 702.71153 636.054387zM534.294772 636.054387l105.260345 0L639.555118 235.301074 534.294772 235.301074 534.294772 636.054387 534.294772 636.054387 534.294772 636.054387zM218.512712 636.054387l105.260345 0L323.773058 518.186909 218.512712 518.186909 218.512712 636.054387 218.512712 636.054387 218.512712 636.054387zM365.876991 636.054387l105.261369 0L471.13836 423.868777 365.876991 423.868777 365.876991 636.054387 365.876991 636.054387 365.876991 636.054387zM365.876991 636.054387" fill="#407fce" /></svg>