<?xml version="1.0" standalone="no"?><!DOCTYPE svg PUBLIC "-//W3C//DTD SVG 1.1//EN" "http://www.w3.org/Graphics/SVG/1.1/DTD/svg11.dtd"><svg class="icon" width="42px" height="42.00px" viewBox="0 0 1024 1024" version="1.1" xmlns="http://www.w3.org/2000/svg"><path d="M512 0C230.4 0 0 230.4 0 512s230.4 512 512 512 512-230.4 512-512S793.6 0 512 0zM512 960c-249.6 0-448-198.4-448-448s198.4-448 448-448 448 198.4 448 448S761.6 960 512 960z" fill="#d47859" /><path d="M723.2 300.8c-19.2-19.2-44.8-19.2-57.6 0L512 454.4 358.4 300.8C345.6 288 320 288 300.8 300.8s-19.2 44.8 0 57.6L454.4 512l-153.6 153.6c-19.2 19.2-19.2 44.8 0 57.6s44.8 19.2 57.6 0L512 569.6l153.6 153.6c19.2 19.2 44.8 19.2 57.6 0s19.2-44.8 0-57.6L569.6 512l153.6-153.6C736 345.6 736 320 723.2 300.8z" fill="#d47859" /></svg>