<?xml version="1.0" standalone="no"?><!DOCTYPE svg PUBLIC "-//W3C//DTD SVG 1.1//EN" "http://www.w3.org/Graphics/SVG/1.1/DTD/svg11.dtd"><svg class="icon" width="40px" height="40px" viewBox="0 0 1025 1024" version="1.1" xmlns="http://www.w3.org/2000/svg"><path d="M484.532 33.882c15.434-17.54 40.751-17.54 56.18 0l462.042 526.466c15.438 17.543 8.689 31.955-15.096 31.955L814.917 592.303c-23.789 0-43.188 18.943-43.188 42.167l0 337.361c0 23.219-19.396 42.167-43.186 42.167L296.7 1013.998c-23.791 0-43.195-18.947-43.195-42.167L253.505 634.469c0-23.225-19.392-42.166-43.182-42.166L37.583 592.303c-23.778 0-30.541-14.414-15.096-31.957L484.532 33.882z" fill="#c20400" /></svg>