<?xml version="1.0" standalone="no"?><!DOCTYPE svg PUBLIC "-//W3C//DTD SVG 1.1//EN" "http://www.w3.org/Graphics/SVG/1.1/DTD/svg11.dtd"><svg class="icon" width="6px" height="6px" viewBox="0 0 1024 1024" version="1.1" xmlns="http://www.w3.org/2000/svg"><path d="M378.5 214.9l7.5 7.5c10.6 10.6 28 10.6 38.7 0 10.6-10.6 10.6-28 0-38.7l-17.5-17.5c122.4-37.3 261-7.8 358 88.6 117.6 116.7 137.4 295.7 58.6 433.4-4.9 8.6-3.8 19.3 2.8 26.7 10.5 11.7 29.3 9.6 37-4 89.1-155.3 66.6-357.6-66.6-489.3C693.3 119.2 548 84.1 415.8 116.4l8.9-8.9c10.6-10.6 10.6-28 0-38.7-10.6-10.6-28-10.6-38.7 0l-57.5 57.5c-6.6 6.7-9.2 16-7.5 24.6l57.5 64M696.6 856.5L639.2 799c-10.6-10.6-28-10.6-38.8 0-10.6 10.6-10.6 28 0 38.8l13.2 13.2c2 2 1.1 5.4-1.6 6.1-121 34.6-256.6 4.5-352.2-90.4C149.9 657.5 125.4 494 187.1 360.6c4.5-9.6 2.5-21.1-5-28.6-10.6-10.6-28.6-7.5-35 6-71.5 151.1-44.3 337.8 81.2 461.8 100.5 99.3 240.1 135.4 369 108.1 3.6-0.8 5.9 3.6 3.4 6.1-10.6 10.6-10.6 28 0 38.8 10.6 10.6 28 10.6 38.8 0l57.5-57.5c10.3-10.6 10.3-28.2-0.4-38.8M696.6 856.5z" fill="#296ec2" /><path d="M653.8 560.6c0 26.9-11.5 49.2-34.4 66.8-18.8 14.5-44 25.1-75.6 31.6v53.4c0 15.2-8.2 22.9-24.5 22.9-7.1 0-12.7-2.7-16.7-8.1-3.1-4.4-4.7-9.3-4.7-14.7v-47.2c-5.6 0.3-11 0.4-16.3 0.4-28.6 0-50.9-3.9-66.8-11.5-14.4-6.8-21.6-15.6-21.6-26.3 0-20.4 11.2-30.5 33.7-30.5 5.8 0 15.7 2.1 29.7 6.3s23 6.3 27.1 6.3c3.9 0 8.6-0.4 14.1-1.1v-94.2c-24.9-1.6-46.1-6.8-63.6-15.8-22.9-11.7-34.4-27.8-34.4-48.5 0-23.5 10.2-45.1 30.7-64.9 18.2-17.7 40.7-30.7 67.3-39.1v-35.2c0-16.7 7.8-25 23.5-25 14.9 0 22.4 8.3 22.4 25v28.2c16.1 1 33.3 4.6 51.7 10.7 23.5 7.7 35.2 16.5 35.2 26.5 0 8.1-2.9 15-8.8 20.7-5.8 5.7-12.8 8.5-20.9 8.5-6.8 0-16.4-1.3-28.6-4.1-13-2.7-22.5-4.2-28.6-4.5v65.6c2 0 3.6 0.1 4.7 0.2 31.5 2.4 56.3 11.2 74.5 26.5 20.7 17.1 30.9 40.8 30.9 71.1zM497.9 406.4c-23.4 8.8-35 19.8-35 32.9 0 11.2 11.7 18.4 35 21.4v-54.3z m45.9 191.8c31.2-10.8 46.8-24.3 46.8-40.4 0-24.2-15.6-37.9-46.8-41.2v81.6z" fill="#296ec2" /></svg>