<?xml version="1.0" standalone="no"?><!DOCTYPE svg PUBLIC "-//W3C//DTD SVG 1.1//EN" "http://www.w3.org/Graphics/SVG/1.1/DTD/svg11.dtd"><svg class="icon" width="100px" height="100.00px" viewBox="0 0 1024 1024" version="1.1" xmlns="http://www.w3.org/2000/svg"><path d="M431.3 811.7h160v40h-160zM209.6 176.445l42.425 42.426-28.284 28.284-42.426-42.426zM492 64.4h40v60h-40zM92.4 487.1h60v40h-60z" fill="#407fce" /><path d="M511.3 157.7c-176.7 0-311 123.3-311 300 0 126.5 94.3 231.1 171 307.8v147h66.1v47h40v-47h68v47h40v-47h65.9v-147c82.2-82.2 170-181.3 170-307.8 0-176.7-133.3-300-310-300z m-100 714.9V793h200v79.6h-200z m370-414.9c0 111.9-81.7 202.9-158.3 279.5L611.3 749v4H532V498.3v-1.6c0-16.5 13.5-30 30-30s30 13.5 30 30c0 12.5-7.6 23.2-18.4 27.7v41.4c33.2-5.5 58.4-34.3 58.4-69 0-38.7-31.3-70-70-70-19.6 0-37.3 8.1-50 21-12.7-13-30.4-21-50-21-38.7 0-70 31.3-70 70 0 34.7 25.3 63.5 58.4 69v-41.4c-10.8-4.5-18.4-15.2-18.4-27.7 0-16.5 13.5-30 30-30s30 13.5 30 30v256.2h-80.7v-4l-11.7-11.7c-36.3-36.3-77.7-80-108.9-128.6-33.9-52.7-50.4-102.1-50.4-150.9 0-37.8 6.9-73.5 20.6-105.9 13.1-31 32-58.4 56.2-81.4 24.2-23 52.9-40.9 85.4-53.3 33.6-12.9 70.3-19.4 108.9-19.4 38.6 0 75.1 6.5 108.7 19.4 32.3 12.4 60.9 30.3 85 53.3 24.1 23 42.9 50.4 55.9 81.4 13.4 32.4 20.3 68 20.3 105.9zM871.6 487.1h60v40h-60zM800.29 247.116l-28.284-28.284 42.426-42.426 28.284 28.284z" fill="#407fce" /></svg>