<?xml version="1.0" standalone="no"?><!DOCTYPE svg PUBLIC "-//W3C//DTD SVG 1.1//EN" "http://www.w3.org/Graphics/SVG/1.1/DTD/svg11.dtd"><svg class="icon" width="42px" height="42.00px" viewBox="0 0 1024 1024" version="1.1" xmlns="http://www.w3.org/2000/svg"><path d="M512.004819 84.329412C275.665619 84.329412 83.388536 276.601675 83.388536 512.936056c0 236.3392 192.277082 428.616282 428.616282 428.616282 236.334381 0 428.606645-192.277082 428.606645-428.616282C940.612668 276.601675 748.3392 84.329412 512.004819 84.329412L512.004819 84.329412zM512.004819 888.946447c-207.331087 0-376.009186-168.678099-376.009186-376.009186 0-207.331087 168.678099-375.999548 376.009186-375.999548 207.327473 0 375.999548 168.67328 375.999548 375.999548C888.005572 720.268348 719.332292 888.946447 512.004819 888.946447L512.004819 888.946447zM512.004819 888.946447" fill="#ecc63b" /><path d="M541.341816 673.561901c7.863115 7.863115 11.797685 17.646532 11.797685 29.340612 0 11.703718-3.934569 21.472678-11.797685 29.340612-7.863115 7.863115-17.646532 11.797685-29.340612 11.797685-11.703718 0-21.477496-3.934569-29.340612-11.797685-7.86432-7.867934-11.797685-17.638099-11.797685-29.340612 0-11.69408 3.933365-21.477496 11.797685-29.340612 7.863115-7.867934 17.636894-11.797685 29.340612-11.797685C523.69408 661.764216 533.477496 665.698786 541.341816 673.561901L541.341816 673.561901zM539.223944 605.802014c6.447586-5.035671 9.679812-14.009525 9.679812-26.917948L548.903755 316.324442c0-12.903605-3.233431-21.87264-9.679812-26.922767-6.456019-5.034466-15.529864-7.55712-27.223944-7.55712-24.607322 0-36.903755 11.096546-36.903755 33.270362l0 264.979878c0 22.183454 12.296433 33.275181 36.903755 33.275181C523.69408 613.365158 532.767925 610.852141 539.223944 605.802014L539.223944 605.802014zM539.223944 605.802014" fill="#ecc63b" /></svg>